<svg width="40" height="40" viewBox="0 0 40 40" fill="none" xmlns="http://www.w3.org/2000/svg">
<rect width="40" height="40" rx="8" fill="#A78BFA"/>
<path d="M20.5 12C21.902 12.023 23.2201 12.5923 24.1919 13.5878C25.1637 14.5833 25.7224 15.9324 25.75 17.35C25.7469 18.7758 25.1863 20.1378 24.19 21.15C23.1937 22.1622 21.8211 22.7429 20.39 22.75H14.25V28H12V12H20.5ZM20.39 20.75C21.1465 20.7483 21.8845 20.4854 22.4741 20.0075C23.0637 19.5296 23.4682 18.8683 23.62 18.13C23.513 16.963 22.537 16.023 21.35 16C21.2294 15.9984 21.1091 16.0084 20.99 16.03H14.25V18H20.5C20.4893 18.7831 20.8038 19.5312 21.36 20.06C21.5714 20.2831 21.8222 20.4623 22.098 20.588C21.5542 20.6971 20.9854 20.7484 20.42 20.74H14.25V20.75H20.39Z" fill="white"/>
</svg>