<svg width="24" height="24" viewBox="0 0 24 24" fill="none" xmlns="http://www.w3.org/2000/svg">
<path fill-rule="evenodd" clip-rule="evenodd" d="M12 2C17.5228 2 22 6.47715 22 12C22 17.5228 17.5228 22 12 22C6.47715 22 2 17.5228 2 12C2 6.47715 6.47715 2 12 2ZM12 8.5C11.1716 8.5 10.5 9.17157 10.5 10V15.5C10.5 16.3284 9.82843 17 9 17C8.17157 17 7.5 16.3284 7.5 15.5C7.5 13.0147 9.51472 11 12 11C14.4853 11 16.5 13.0147 16.5 15.5C16.5 16.3284 15.8284 17 15 17C14.1716 17 13.5 16.3284 13.5 15.5V10C13.5 9.17157 12.8284 8.5 12 8.5Z" fill="white"/>
</svg>
