<svg width="48" height="48" viewBox="0 0 48 48" fill="none" xmlns="http://www.w3.org/2000/svg">
<rect width="48" height="48" rx="8" fill="#BDB2FF"/>
<path d="M24 38C32.8366 38 40 30.8366 40 22C40 13.1634 32.8366 6 24 6C15.1634 6 8 13.1634 8 22C8 30.8366 15.1634 38 24 38Z" stroke="white" stroke-width="2" stroke-linecap="round" stroke-linejoin="round"/>
<path d="M24 38C24 38 28 34 28 22C28 10 24 6 24 6C24 6 20 10 20 22C20 34 24 38 24 38Z" stroke="white" stroke-width="2" stroke-linecap="round" stroke-linejoin="round"/>
<path d="M14 14C16 16.6667 18 18 24 18C30 18 32 16.6667 34 14" stroke="white" stroke-width="2" stroke-linecap="round" stroke-linejoin="round"/>
<path d="M12 22H40" stroke="white" stroke-width="2" stroke-linecap="round" stroke-linejoin="round"/>
<path d="M8 26H32" stroke="white" stroke-width="2" stroke-linecap="round" stroke-linejoin="round"/>
<path d="M14 30H38" stroke="white" stroke-width="2" stroke-linecap="round" stroke-linejoin="round"/>
</svg>
