<?xml version="1.0" standalone="no"?>
<!DOCTYPE svg PUBLIC "-//W3C//DTD SVG 20010904//EN"
 "http://www.w3.org/TR/2001/REC-SVG-20010904/DTD/svg10.dtd">
<svg version="1.0" xmlns="http://www.w3.org/2000/svg"
 width="300.000000pt" height="300.000000pt" viewBox="0 0 300.000000 300.000000"
 preserveAspectRatio="xMidYMid meet">
<metadata>
Created by potrace 1.10, written by Peter Selinger 2001-2011
</metadata>
<g transform="translate(0.000000,300.000000) scale(0.050000,-0.050000)"
fill="#8077f0" stroke="none">
<path d="M2440 5878 c-163 -25 -403 -136 -563 -261 -49 -38 -96 -57 -144 -57
-371 0 -688 -479 -544 -822 10 -24 -9 -40 -78 -67 -257 -98 -421 -352 -421
-652 l0 -192 -73 -52 c-277 -197 -347 -639 -148 -934 68 -100 68 -102 38 -176
-111 -265 52 -692 316 -827 70 -35 76 -44 62 -94 -100 -358 167 -745 537 -779
105 -9 118 -16 140 -69 173 -419 902 -490 1240 -120 170 185 159 19 153 2525
l-5 2209 -46 100 c-100 218 -245 301 -464 268z m231 -219 c94 -89 108 -171
114 -694 3 -267 0 -485 -7 -485 -6 0 -29 19 -50 42 -103 114 -378 192 -449
127 -69 -63 -18 -149 89 -149 151 -1 329 -134 389 -290 20 -53 47 -2030 27
-2030 -3 0 -30 23 -60 50 -132 123 -385 186 -452 112 -61 -67 -4 -134 126
-146 292 -28 370 -170 378 -684 8 -505 7 -512 -124 -643 -160 -160 -386 -210
-625 -139 -185 55 -251 122 -367 370 -11 22 -52 31 -155 33 -345 9 -562 317
-435 620 51 122 42 141 -96 204 -224 101 -354 320 -327 549 15 126 8 123 135
66 221 -98 396 -76 364 47 -11 41 -25 47 -175 72 -602 97 -584 988 22 1065
143 18 190 71 130 146 -37 44 -44 46 -146 25 -130 -27 -128 -30 -125 110 11
542 721 717 1010 249 83 -133 222 -51 148 87 -97 179 -283 307 -517 354 -263
53 -212 465 76 612 285 145 651 -59 651 -364 0 -78 30 -115 92 -115 208 0 20
493 -239 624 l-58 30 93 54 c258 151 464 184 563 91z"/>
<path d="M1713 3678 c-48 -69 24 -265 159 -431 152 -187 8 -496 -263 -565
-212 -54 -246 -193 -46 -185 242 9 537 300 537 529 0 29 9 35 35 24 286 -119
594 -84 529 60 -24 52 -30 54 -130 42 -285 -35 -578 156 -655 428 -39 137
-110 179 -166 98z"/>
<path d="M2050 1853 c-174 -57 -321 -180 -400 -333 -77 -149 75 -227 155 -80
116 211 350 314 545 240 119 -45 192 105 77 158 -82 37 -286 45 -377 15z"/>
<path d="M3500 5885 c-109 -13 -144 -29 -218 -96 -43 -38 -99 -117 -125 -174
l-47 -105 -5 -2209 c-7 -2551 -21 -2349 182 -2551 336 -334 927 -286 1174 97
68 105 71 108 180 118 367 35 633 424 534 779 -14 50 -8 59 62 94 264 135 420
543 318 830 -27 76 -26 81 38 176 195 290 122 737 -150 931 l-73 52 0 192 c0
300 -164 554 -421 652 -69 27 -88 43 -78 67 143 341 -173 822 -540 822 -48 0
-109 28 -211 98 -211 146 -479 244 -620 227z m234 -216 c75 -28 175 -74 224
-103 l88 -51 -58 -30 c-262 -133 -448 -625 -236 -625 53 0 88 52 88 129 0 379
568 540 799 227 160 -219 125 -451 -74 -491 -230 -45 -459 -206 -527 -369 -49
-119 90 -196 149 -82 253 483 1009 307 1021 -237 3 -140 5 -137 -123 -111 -97
20 -109 19 -149 -21 -70 -70 -12 -136 135 -151 599 -62 614 -967 18 -1063
-147 -24 -165 -31 -177 -64 -49 -128 140 -156 366 -55 127 57 120 60 135 -66
27 -229 -103 -448 -327 -549 -138 -63 -147 -82 -96 -204 127 -303 -90 -611
-435 -620 -103 -2 -144 -11 -155 -33 -113 -243 -186 -317 -368 -371 -298 -88
-664 56 -733 288 -50 168 -16 885 46 979 73 111 191 186 310 199 149 16 204
84 125 155 -73 66 -320 -1 -450 -122 -68 -63 -62 -193 -50 972 l10 1010 47 75
c77 124 229 215 359 215 54 0 124 51 124 90 0 135 -318 94 -486 -62 -31 -29
-58 -49 -60 -45 -24 45 21 1036 49 1087 87 158 189 183 411 99z"/>
<path d="M4237 3695 c-17 -14 -41 -61 -53 -105 -79 -280 -370 -473 -658 -438
-99 12 -106 10 -129 -40 -67 -148 236 -184 528 -62 26 11 35 5 35 -24 0 -264
400 -604 616 -523 76 28 47 157 -35 157 -298 1 -524 377 -353 587 135 166 207
362 159 431 -33 48 -66 53 -110 17z"/>
<path d="M3730 1868 c-118 -30 -150 -53 -150 -110 0 -72 56 -106 130 -78 195
74 429 -29 545 -240 78 -143 219 -80 157 69 -98 233 -447 417 -682 359z"/>
</g>
</svg>
