<svg width="24" height="24" viewBox="0 0 24 24" fill="none" xmlns="http://www.w3.org/2000/svg">
<path d="M12 2C6.48 2 2 6.48 2 12s4.48 10 10 10 10-4.48 10-10S17.52 2 12 2zm-1 16v-5.5a2.5 2.5 0 1 0-5 0V18H4.5v-2.5a4.5 4.5 0 1 1 9 0V18H12v-5.5a2.5 2.5 0 1 0-5 0V18" stroke="hsl(var(--primary))" stroke-width="2" stroke-linecap="round" stroke-linejoin="round"/>
<path d="M12 18v-5.5a2.5 2.5 0 1 1 5 0V18h1.5v-2.5a4.5 4.5 0 1 0-9 0V18H11" stroke="hsl(var(--primary))" stroke-width="2" stroke-linecap="round" stroke-linejoin="round"/>
<path d="M12 12.5a2.5 2.5 0 1 1 5 0 2.5 2.5 0 0 1-5 0z" stroke="hsl(var(--primary))" stroke-width="2" stroke-linecap="round" stroke-linejoin="round"/>
</svg>
