<svg width="40" height="40" viewBox="0 0 40 40" fill="none" xmlns="http://www.w3.org/2000/svg">
<rect width="40" height="40" rx="8" fill="hsl(var(--primary))"/>
<path d="M20 13C19.21 13 18.52 13.38 18.07 14.01L14.5 19.43C14.19 19.88 14 20.43 14 21C14 22.66 15.34 24 17 24H23C24.66 24 26 22.66 26 21C26 20.43 25.81 19.88 25.5 19.43L21.93 14.01C21.48 13.38 20.79 13 20 13ZM20 15C20.1 15 20.19 15.04 20.27 15.11L23.83 20.53C23.88 20.61 23.9 20.7 23.9 20.79V21C23.9 21.55 23.55 22 23 22H17C16.45 22 16.1 21.55 16.1 21V20.79C16.1 20.7 16.12 20.61 16.17 20.53L19.73 15.11C19.81 15.04 19.9 15 20 15Z" fill="white"/>
<path d="M20 25C17.24 25 15 27.24 15 30H25C25 27.24 22.76 25 20 25Z" fill="white"/>
<path d="M12.87 23.13C12.58 22.84 12.58 22.36 12.87 22.07L15.64 19.3C15.93 19.01 16.41 19.01 16.7 19.3C16.99 19.59 16.99 20.07 16.7 20.36L13.93 23.13C13.64 23.42 13.16 23.42 12.87 23.13Z" fill="white"/>
<path d="M27.13 23.13C27.42 23.42 27.42 22.94 27.13 22.65L24.36 19.88C24.07 19.59 23.59 19.59 23.3 19.88C23.01 20.17 23.01 20.65 23.3 20.94L26.07 23.71C26.36 24 26.84 24 27.13 23.71V23.13Z" fill="white"/>
</svg>
